# xmcd
# 
# Track frame offsets:
#     150
#     44227
#     77685
#     108432
#     139557
#     178882
#     194765
#     222090
#     239427
#     285445
# 
# Disc length: 4041
# 
# Revision: 1
# Processed by: cddbd v1.5.2PL0 Copyright (c) Steve Scherf et al.
# Submitted via: BonkEnc v1.0.8
# 
DISCID=970fc70a
DTITLE=Anders Jormin - Silvae
DYEAR=1998
DGENRE=Contemporary Jazz
TTITLE0=Namatanda
TTITLE1=Thousand days left
TTITLE2=Blues
TTITLE3=Koto
TTITLE4=Minus
TTITLE5=Diptyk
TTITLE6=Living my life
TTITLE7=Months of a stone
TTITLE8=A glimpse of Maria
TTITLE9=M.C.
EXTD=YEAR: 1998
EXTT0=
EXTT1=
EXTT2=
EXTT3=
EXTT4=
EXTT5=
EXTT6=
EXTT7=
EXTT8=
EXTT9=
PLAYORDER=
